<?xml version="1.0" encoding="UTF-8"?><svg xmlns="http://www.w3.org/2000/svg" width="128" height="384" viewBox="0 0 128 384" shape-rendering="geometricPrecision"><defs><clipPath id="clip-hatch"><rect x="0" y="0" width="100%" height="100%"/></clipPath></defs><line x1="22" y1="72" x2="22" y2="350" stroke="#FEFEFD" stroke-width="2" stroke-linecap="square" vector-effect="non-scaling-stroke"/><line x1="22" y1="72" x2="38" y2="72" stroke="#FEFEFD" stroke-width="1" stroke-linecap="square" vector-effect="non-scaling-stroke"/><line x1="22" y1="95" x2="30" y2="95" stroke="#FEFEFD" stroke-width="1" stroke-linecap="square" vector-effect="non-scaling-stroke"/><line x1="22" y1="118" x2="30" y2="118" stroke="#FEFEFD" stroke-width="1" stroke-linecap="square" vector-effect="non-scaling-stroke"/><line x1="22" y1="141" x2="30" y2="141" stroke="#FEFEFD" stroke-width="1" stroke-linecap="square" vector-effect="non-scaling-stroke"/><line x1="22" y1="164" x2="30" y2="164" stroke="#FEFEFD" stroke-width="1" stroke-linecap="square" vector-effect="non-scaling-stroke"/><line x1="22" y1="187" x2="30" y2="187" stroke="#FEFEFD" stroke-width="1" stroke-linecap="square" vector-effect="non-scaling-stroke"/><line x1="22" y1="210" x2="38" y2="210" stroke="#FEFEFD" stroke-width="1" stroke-linecap="square" vector-effect="non-scaling-stroke"/><line x1="22" y1="233" x2="30" y2="233" stroke="#FEFEFD" stroke-width="1" stroke-linecap="square" vector-effect="non-scaling-stroke"/><line x1="22" y1="256" x2="30" y2="256" stroke="#FEFEFD" stroke-width="1" stroke-linecap="square" vector-effect="non-scaling-stroke"/><line x1="22" y1="279" x2="30" y2="279" stroke="#FEFEFD" stroke-width="1" stroke-linecap="square" vector-effect="non-scaling-stroke"/><line x1="22" y1="302" x2="30" y2="302" stroke="#FEFEFD" stroke-width="1" stroke-linecap="square" vector-effect="non-scaling-stroke"/><line x1="22" y1="325" x2="30" y2="325" stroke="#FEFEFD" stroke-width="1" stroke-linecap="square" vector-effect="non-scaling-stroke"/><line x1="22" y1="348" x2="38" y2="348" stroke="#FEFEFD" stroke-width="1" stroke-linecap="square" vector-effect="non-scaling-stroke"/><polygon points="16,338 28,350 16,362" fill="#FEFEFD" stroke="none" stroke-width="0" stroke-linejoin="miter" vector-effect="non-scaling-stroke"/><text x="16" y="38" fill="#FEFEFD" font-family="DejaVu Sans Mono, monospace" font-size="18" font-weight="700" text-anchor="start" letter-spacing="0.99">TEMP</text><rect x="76" y="17" width="44" height="28" rx="0" fill="#D1D1D1" stroke="#FEFEFD" stroke-width="1" vector-effect="non-scaling-stroke"/><text x="98" y="38" fill="#000000" font-family="DejaVu Sans Mono, monospace" font-size="16" font-weight="700" text-anchor="middle" letter-spacing="0.88">OK</text><text x="38" y="88" fill="#FEFEFD" font-family="DejaVu Sans Mono, monospace" font-size="13" font-weight="400" text-anchor="start" letter-spacing="0.715">-100</text><text x="38" y="202" fill="#FEFEFD" font-family="DejaVu Sans Mono, monospace" font-size="13" font-weight="400" text-anchor="start" letter-spacing="0.715">50</text><text x="38" y="350" fill="#FEFEFD" font-family="DejaVu Sans Mono, monospace" font-size="13" font-weight="400" text-anchor="start" letter-spacing="0.715">00</text></svg>