<svg xmlns="http://www.w3.org/2000/svg" width="720" height="520" viewBox="0 0 720 520">
<defs>
  <linearGradient id="redPanel" x1="0" y1="0" x2="1" y2="1">
    <stop offset="0" stop-color="#FF2432"/>
    <stop offset="0.62" stop-color="#E30613"/>
    <stop offset="1" stop-color="#7D000A"/>
  </linearGradient>
  <linearGradient id="whiteMetal" x1="0" y1="0" x2="1" y2="1">
    <stop offset="0" stop-color="#FFFFFF"/>
    <stop offset="0.6" stop-color="#F4F2EC"/>
    <stop offset="1" stop-color="#888B8F"/>
  </linearGradient>
  <pattern id="hatch" width="18" height="18" patternUnits="userSpaceOnUse" patternTransform="rotate(22)">
    <rect width="5" height="18" fill="#09090B"/>
  </pattern>
  <pattern id="fineHatch" width="10" height="10" patternUnits="userSpaceOnUse" patternTransform="rotate(24)">
    <rect width="2" height="10" fill="#F4F2EC" fill-opacity="0.7"/>
  </pattern>
</defs>
<path d="M34 18H672L704 50V470L672 502H34L16 484V36Z" fill="#07080A" fill-opacity=".90" stroke="#F4F2EC" stroke-width="3"/><path d="M34 18H302.4M16 36V176.8M417.59999999999997 502H672" stroke="#E30613" stroke-width="7"/><path d="M5 20H35M20 5V35" stroke="#F4F2EC" stroke-width="4"/><rect x="16" y="16" width="8" height="8" fill="#F4F2EC"/><path d="M685 500H715M700 485V515" stroke="#F4F2EC" stroke-width="4"/><rect x="696" y="496" width="8" height="8" fill="#F4F2EC"/><text x="48" y="82" fill="#F4F2EC" fill-opacity="1.0" font-family="DejaVu Sans Mono, monospace" font-size="30" font-weight="400" letter-spacing="2" text-anchor="start">TYPE17 // BOOT CONTROLS</text><path d="M48 110H646" stroke="#B9B8B2" stroke-width="2" stroke-dasharray="16 10"/><text x="72" y="184" fill="#F4F2EC" fill-opacity="1.0" font-family="DejaVu Sans Mono, monospace" font-size="34" font-weight="400" letter-spacing="2" text-anchor="start">↑↓  SELECT</text><text x="72" y="250" fill="#F4F2EC" fill-opacity="1.0" font-family="DejaVu Sans Mono, monospace" font-size="34" font-weight="400" letter-spacing="2" text-anchor="start">ENTER  BOOT</text><text x="72" y="316" fill="#F4F2EC" fill-opacity="1.0" font-family="DejaVu Sans Mono, monospace" font-size="34" font-weight="400" letter-spacing="2" text-anchor="start">E  EDIT</text><text x="72" y="382" fill="#F4F2EC" fill-opacity="1.0" font-family="DejaVu Sans Mono, monospace" font-size="34" font-weight="400" letter-spacing="2" text-anchor="start">C  CONSOLE</text>
</svg>
