<svg xmlns="http://www.w3.org/2000/svg" width="640" height="360" viewBox="0 0 640 360">
<defs>
  <linearGradient id="redPanel" x1="0" y1="0" x2="1" y2="1">
    <stop offset="0" stop-color="#FF2432"/>
    <stop offset="0.62" stop-color="#E30613"/>
    <stop offset="1" stop-color="#7D000A"/>
  </linearGradient>
  <linearGradient id="whiteMetal" x1="0" y1="0" x2="1" y2="1">
    <stop offset="0" stop-color="#FFFFFF"/>
    <stop offset="0.6" stop-color="#F4F2EC"/>
    <stop offset="1" stop-color="#888B8F"/>
  </linearGradient>
  <pattern id="hatch" width="18" height="18" patternUnits="userSpaceOnUse" patternTransform="rotate(22)">
    <rect width="5" height="18" fill="#09090B"/>
  </pattern>
  <pattern id="fineHatch" width="10" height="10" patternUnits="userSpaceOnUse" patternTransform="rotate(24)">
    <rect width="2" height="10" fill="#F4F2EC" fill-opacity="0.7"/>
  </pattern>
</defs>
<path d="M24 260L118 34H494L602 118L522 332H136Z" fill="url(#whiteMetal)" stroke="#07080A" stroke-width="8"/><path d="M138 54H418L474 98" stroke="#07080A" stroke-width="5"/><path d="M92 268L164 98" stroke="#E30613" stroke-width="8"/><rect x="286" y="90" width="16" height="7" rx="3" fill="#07080A"/><rect x="308" y="90" width="16" height="7" rx="3" fill="#07080A"/><rect x="330" y="90" width="16" height="7" rx="3" fill="#07080A"/><rect x="352" y="90" width="16" height="7" rx="3" fill="#07080A"/><rect x="374" y="90" width="16" height="7" rx="3" fill="#07080A"/><rect x="396" y="90" width="16" height="7" rx="3" fill="#07080A"/><rect x="286" y="106" width="16" height="7" rx="3" fill="#07080A"/><rect x="308" y="106" width="16" height="7" rx="3" fill="#07080A"/><rect x="330" y="106" width="16" height="7" rx="3" fill="#07080A"/><rect x="352" y="106" width="16" height="7" rx="3" fill="#07080A"/><rect x="374" y="106" width="16" height="7" rx="3" fill="#07080A"/><rect x="286" y="122" width="16" height="7" rx="3" fill="#07080A"/><rect x="308" y="122" width="16" height="7" rx="3" fill="#07080A"/><rect x="330" y="122" width="16" height="7" rx="3" fill="#07080A"/><rect x="352" y="122" width="16" height="7" rx="3" fill="#07080A"/><rect x="286" y="138" width="16" height="7" rx="3" fill="#07080A"/><rect x="308" y="138" width="16" height="7" rx="3" fill="#07080A"/><rect x="330" y="138" width="16" height="7" rx="3" fill="#07080A"/><polygon points="450,222.0 482.0,286.0 418.0,286.0" fill="#F5D34A" stroke="#07080A" stroke-width="3.84"/><polygon points="450,236.4 468.56,271.6 431.44,271.6" fill="#07080A"/><rect x="447.12" y="245.04" width="5.76" height="19.2" fill="#F4F2EC"/><circle cx="450" cy="270.0" r="2.88" fill="#F4F2EC"/>
</svg>
